<?xml version="1.0" encoding="utf-8"?>
<!-- Generator: Adobe Illustrator 16.0.0, SVG Export Plug-In . SVG Version: 6.00 Build 0)  -->
<!DOCTYPE svg PUBLIC "-//W3C//DTD SVG 1.1//EN" "http://www.w3.org/Graphics/SVG/1.1/DTD/svg11.dtd">
<svg version="1.1" id="Capa_1" xmlns="http://www.w3.org/2000/svg" xmlns:xlink="http://www.w3.org/1999/xlink" x="0px" y="0px"
	 width="595.28px" height="240px" viewBox="0 0 595.28 240" enable-background="new 0 0 595.28 240" xml:space="preserve">
<g>
	<g>
		<path fill="#636363" d="M238.137,151.567c-5.583-3.522-8.372-8.912-8.372-16.169c0-3.836,0.662-6.767,1.988-8.791
			c1.325-2.022,3.279-3.035,5.861-3.035c1.884,0,3.417,0.489,4.604,1.465c1.186,0.978,1.779,2.233,1.779,3.767
			c0,1.396-0.105,2.617-0.314,3.663c0,0.28-0.053,0.769-0.157,1.466s-0.157,1.431-0.157,2.197c0,3.14,1.586,5.478,4.761,7.012
			c3.174,1.535,7.622,2.302,13.343,2.302c5.929,0,10.57-1.063,13.919-3.191c3.349-2.127,5.023-5.11,5.023-8.947
			c0-2.371-0.769-4.412-2.302-6.123c-1.535-1.708-3.454-3.139-5.756-4.29c-2.302-1.151-5.546-2.564-9.732-4.239
			c-5.374-2.093-9.75-4.081-13.134-5.965c-3.385-1.884-6.279-4.448-8.686-7.692c-2.407-3.245-3.611-7.273-3.611-12.087
			c0-5.023,1.343-9.487,4.029-13.396c2.685-3.906,6.557-6.941,11.616-9.104c5.058-2.162,11.005-3.245,17.843-3.245
			c5.092,0,9.767,0.751,14.023,2.25c4.254,1.501,7.656,3.786,10.204,6.855c2.546,3.071,3.82,6.838,3.82,11.302
			c0,4.396-0.664,7.71-1.989,9.942c-1.326,2.234-3.28,3.349-5.86,3.349c-1.815,0-3.333-0.558-4.552-1.675
			c-1.222-1.115-1.832-2.441-1.832-3.977c0-1.325,0.104-2.546,0.314-3.663c0.209-2.093,0.314-3.418,0.314-3.977
			c0-2.93-1.431-5.162-4.291-6.698c-2.862-1.534-6.42-2.302-10.675-2.302c-6.001,0-10.588,1.099-13.762,3.296
			c-3.175,2.198-4.762,5.285-4.762,9.262c0,2.652,0.819,4.919,2.459,6.803c1.639,1.883,3.679,3.453,6.122,4.709
			c2.441,1.256,5.861,2.757,10.256,4.5c5.301,2.164,9.558,4.118,12.768,5.861c3.208,1.745,5.947,4.117,8.215,7.116
			c2.266,3,3.401,6.697,3.401,11.093c0,8.233-3.123,14.564-9.366,18.994c-6.245,4.432-14.599,6.646-25.064,6.646
			C251.148,156.851,243.718,155.09,238.137,151.567z"/>
		<path fill="#636363" d="M352.574,133.933c0.521,0.837,0.783,1.988,0.783,3.453c0,2.791-0.662,4.954-1.988,6.488
			c-2.582,3.14-6.227,6.035-10.936,8.687c-4.709,2.652-9.75,3.977-15.121,3.977c-7.326,0-13.014-1.988-17.059-5.966
			c-4.047-3.977-6.07-9.418-6.07-16.325c0-4.814,1.01-9.296,3.035-13.448c2.021-4.15,4.83-7.447,8.424-9.89
			c3.594-2.441,7.656-3.663,12.191-3.663c4.047,0,7.291,1.203,9.734,3.61c2.439,2.407,3.662,5.669,3.662,9.785
			c0,4.814-1.727,8.948-5.18,12.402c-3.455,3.453-9.299,6.192-17.529,8.215c1.742,3.21,5.057,4.813,9.941,4.813
			c3.139,0,6.715-1.099,10.727-3.296c4.012-2.198,7.482-5.076,10.412-8.634c0.838-0.977,1.779-1.465,2.826-1.465
			C351.334,132.677,352.051,133.095,352.574,133.933z M317.516,122.002c-1.779,3-2.67,6.629-2.67,10.884v0.209
			c4.117-0.976,7.361-2.441,9.732-4.396c2.371-1.952,3.559-4.221,3.559-6.802c0-1.324-0.365-2.389-1.098-3.192
			c-0.732-0.801-1.727-1.203-2.982-1.203C321.475,117.502,319.295,119.003,317.516,122.002z"/>
		<path fill="#636363" d="M386.689,133.933c0.522,0.837,0.784,1.988,0.784,3.453c0,2.791-0.663,4.954-1.988,6.488
			c-3,3.699-6.263,6.733-9.785,9.104c-3.523,2.373-7.519,3.559-11.982,3.559c-6.14,0-10.692-2.79-13.657-8.372
			c-2.966-5.581-4.447-12.802-4.447-21.663c0-8.511,1.099-18.209,3.297-29.093c2.197-10.884,5.441-20.232,9.732-28.047
			c4.291-7.813,9.4-11.721,15.331-11.721c3.35,0,5.981,1.553,7.901,4.657c1.918,3.105,2.878,7.553,2.878,13.343
			c0,8.303-2.302,17.931-6.907,28.884c-4.604,10.954-10.849,21.803-18.732,32.546c0.487,2.862,1.29,4.902,2.407,6.122
			c1.115,1.222,2.58,1.832,4.396,1.832c2.859,0,5.371-0.819,7.534-2.46c2.162-1.638,4.919-4.447,8.268-8.424
			c0.838-0.977,1.779-1.465,2.826-1.465C385.449,132.677,386.166,133.095,386.689,133.933z M366.229,76.688
			c-2.024,5.792-3.804,12.977-5.337,21.559c-1.535,8.581-2.373,16.814-2.512,24.698c4.953-8.163,8.896-16.342,11.825-24.541
			c2.931-8.197,4.396-15.68,4.396-22.448c0-5.301-0.978-7.954-2.93-7.954C370.065,68.002,368.252,70.898,366.229,76.688z"/>
		<path fill="#636363" d="M423.683,131.107c0,5.513-4.327,8.268-12.978,8.268c-1.674,0-4.081-0.313-7.221-0.941
			c0.906,4.326,1.656,9.122,2.25,14.39c0.592,5.267,0.89,9.609,0.89,13.028c0,7.535-1.222,13.291-3.663,17.268
			c-2.442,3.978-5.651,5.966-9.628,5.966c-5.023,0-8.6-3.559-10.727-10.675c-2.129-7.116-3.191-17.861-3.191-32.232
			c0-13.396,1.446-26.982,4.343-40.762c2.895-13.778,6.871-25.185,11.93-34.221c5.058-9.034,10.623-13.552,16.692-13.552
			c3.278,0,5.843,1.465,7.692,4.395c1.848,2.931,2.772,6.873,2.772,11.826c0,16.396-9.803,34.257-29.407,53.582
			c-0.698,6.839-1.046,12.838-1.046,18c0,7.188,0.243,14.563,0.732,22.135c0.487,7.568,1.29,11.354,2.407,11.354
			c2.093,0,3.14-3.629,3.14-10.884c0-5.442-0.366-10.711-1.1-15.803c-0.732-5.092-1.727-10.465-2.982-16.116
			c-0.07-0.906,0.226-2.057,0.89-3.453c0.662-1.396,1.481-2.617,2.459-3.663c0.977-1.047,1.849-1.57,2.617-1.57
			c1.395,0,3.068,0.07,5.022,0.21c0.628,0.07,1.36,0.104,2.198,0.104c2.789,0,5.895-0.244,9.313-0.732
			c0.558-0.069,1.151-0.14,1.779-0.21c0.628-0.068,1.256-0.104,1.884-0.104C422.704,126.711,423.683,128.177,423.683,131.107z
			 M405.525,74.386c-1.85,4.256-3.681,9.89-5.494,16.901c-1.815,7.012-3.385,14.425-4.71,22.238
			c5.581-6.348,9.872-12.958,12.872-19.832c2.999-6.871,4.535-13.307,4.605-19.308c0-4.255-0.873-6.384-2.616-6.384
			C408.927,68.002,407.373,70.131,405.525,74.386z"/>
		<path fill="#636363" d="M464.549,133.933c0.522,0.837,0.784,1.988,0.784,3.453c0,2.791-0.663,4.954-1.988,6.488
			c-2.582,3.14-6.227,6.035-10.936,8.687c-4.71,2.652-9.751,3.977-15.122,3.977c-7.326,0-13.014-1.988-17.059-5.966
			c-4.047-3.977-6.07-9.418-6.07-16.325c0-4.814,1.011-9.296,3.035-13.448c2.022-4.15,4.83-7.447,8.425-9.89
			c3.593-2.441,7.655-3.663,12.191-3.663c4.046,0,7.29,1.203,9.733,3.61c2.44,2.407,3.662,5.669,3.662,9.785
			c0,4.814-1.727,8.948-5.18,12.402c-3.454,3.453-9.298,6.192-17.529,8.215c1.743,3.21,5.058,4.813,9.941,4.813
			c3.14,0,6.715-1.099,10.728-3.296c4.011-2.198,7.482-5.076,10.412-8.634c0.838-0.977,1.779-1.465,2.826-1.465
			C463.309,132.677,464.025,133.095,464.549,133.933z M429.49,122.002c-1.779,3-2.669,6.629-2.669,10.884v0.209
			c4.116-0.976,7.36-2.441,9.732-4.396c2.371-1.952,3.559-4.221,3.559-6.802c0-1.324-0.366-2.389-1.099-3.192
			c-0.732-0.801-1.727-1.203-2.982-1.203C433.449,117.502,431.27,119.003,429.49,122.002z"/>
		<path fill="#636363" d="M505.676,133.933c0.522,0.837,0.784,1.988,0.784,3.453c0,2.791-0.663,4.954-1.988,6.488
			c-2.582,3.14-6.227,6.035-10.936,8.687c-4.71,2.652-9.751,3.977-15.122,3.977c-7.326,0-13.014-1.988-17.059-5.966
			c-4.047-3.977-6.07-9.418-6.07-16.325c0-4.814,1.011-9.296,3.035-13.448c2.022-4.15,4.83-7.447,8.425-9.89
			c3.593-2.441,7.655-3.663,12.191-3.663c4.046,0,7.29,1.203,9.733,3.61c2.44,2.407,3.662,5.669,3.662,9.785
			c0,4.814-1.727,8.948-5.18,12.402c-3.454,3.453-9.298,6.192-17.529,8.215c1.743,3.21,5.058,4.813,9.941,4.813
			c3.14,0,6.715-1.099,10.728-3.296c4.011-2.198,7.482-5.076,10.412-8.634c0.838-0.977,1.779-1.465,2.826-1.465
			C504.436,132.677,505.152,133.095,505.676,133.933z M470.617,122.002c-1.779,3-2.669,6.629-2.669,10.884v0.209
			c4.116-0.976,7.36-2.441,9.732-4.396c2.371-1.952,3.559-4.221,3.559-6.802c0-1.324-0.366-2.389-1.099-3.192
			c-0.732-0.801-1.727-1.203-2.982-1.203C474.576,117.502,472.396,119.003,470.617,122.002z"/>
		<path fill="#636363" d="M538.903,149.63c0.277,0.907,0.418,1.85,0.418,2.825c0,3.14-1.92,4.71-5.756,4.71
			c-2.163,0-3.819-0.594-4.971-1.779s-2.216-3.418-3.192-6.697l-0.104-0.419c-2.652,3.28-5.041,5.478-7.168,6.593
			c-2.129,1.117-4.589,1.675-7.378,1.675c-4.257,0-7.763-1.586-10.518-4.762c-2.757-3.174-4.134-7.308-4.134-12.401
			c0-5.581,1.186-10.743,3.558-15.488c2.371-4.744,5.615-8.634,9.732-11.669c4.116-3.035,8.721-4.866,13.814-5.494
			c1.324-13.186,3.854-24.662,7.587-34.431c3.731-9.767,8.703-14.651,14.913-14.651c2.999,0,5.494,1.36,7.482,4.081
			c1.989,2.721,2.983,6.838,2.983,12.349c0,7.676-1.884,16.64-5.651,26.896s-8.757,20.826-14.966,31.71
			C536.321,138.398,537.438,144.049,538.903,149.63z M518.443,144.398c1.29-1.047,2.946-3.069,4.971-6.07
			c-0.698-5.092-1.046-10.36-1.046-15.802c0-2.162,0.034-3.836,0.104-5.023c-3.838,1.117-7.012,3.663-9.523,7.64
			c-2.512,3.977-3.768,8.372-3.768,13.186c0,5.094,1.743,7.64,5.232,7.64C515.81,145.967,517.151,145.444,518.443,144.398z
			 M538.851,83.386c-1.779,10.326-2.982,21.558-3.61,33.698c7.744-16.744,11.616-30.349,11.616-40.814
			c0-2.651-0.228-4.709-0.681-6.174c-0.454-1.465-0.994-2.198-1.622-2.198C542.529,67.897,540.63,73.061,538.851,83.386z"/>
	</g>
</g>
<g>
	<polygon fill="none" points="97.93,85.587 97.077,84.732 75.561,106.251 119.004,149.692 162.45,106.251 140.935,84.732 
		119.004,106.665 	"/>
	<polygon fill="none" points="119.857,63.655 119.004,62.805 118.155,63.655 119.004,64.51 	"/>
	<polygon fill="#323232" points="54.484,85.168 33.406,106.251 54.484,85.168 	"/>
	
		<rect x="71.84" y="107.792" transform="matrix(0.7071 -0.7071 0.7071 0.7071 -72.5348 101.9059)" fill="#7BAE63" width="29.808" height="61.436"/>
	<polygon fill="#96BA65" points="183.525,85.168 162.45,106.251 119.004,149.692 97.927,170.769 119.004,191.846 183.525,127.329 
		204.608,106.246 	"/>
	<polygon fill="#323232" points="54.484,127.329 54.484,127.329 33.406,106.251 	"/>
	<polygon fill="#96BA65" points="97.077,84.732 76,63.655 54.484,85.168 75.561,106.251 	"/>
	<polygon fill="#60844B" points="119.004,64.51 118.155,63.655 97.077,84.732 97.93,85.587 	"/>
	<g>
		<polygon fill="#96BA65" points="33.406,106.251 54.484,127.329 75.561,106.251 54.484,85.168 		"/>
		<polygon fill="#96BA65" points="97.077,42.583 76,63.655 97.077,84.732 118.155,63.655 		"/>
	</g>
	<polygon fill="#60844B" points="119.004,64.51 140.082,85.587 119.004,106.665 140.935,84.732 119.857,63.655 	"/>
	<polygon fill="#7BAE63" points="162.015,63.655 140.935,42.578 119.857,63.655 140.935,84.732 162.45,106.251 183.525,85.168 
		204.608,106.246 	"/>
	
		<rect x="104.1" y="70.684" transform="matrix(-0.7071 0.7071 -0.7071 -0.7071 263.6728 61.9584)" fill="#7BAE63" width="29.808" height="29.808"/>
</g>
</svg>
